# Blender v2.93.6 OBJ File: ''
# www.blender.org
mtllib arrow.mtl
o group905816428
v 0.341000 -0.000000 0.254945
v 0.000103 -0.080320 0.141742
v -0.000670 0.000000 -0.539794
v -0.340537 -0.000001 0.255718
v 0.000103 0.080320 0.141742
vt -0.169248 0.098140
vt -0.014378 0.100717
vt 0.071355 -0.175051
vt -0.106660 0.161850
vt 0.020596 0.073549
vt -0.070748 -0.200411
vt -0.025106 -0.078046
vt -0.008369 -0.143541
vt -0.163189 -0.148219
vt 0.069290 0.049497
vt 0.220926 0.017912
vt -0.066656 -0.205291
vt -0.097660 0.055493
vt 0.001653 0.174355
vt 0.063007 -0.184474
vt 0.063061 -0.030690
vt 0.176048 0.075259
vt 0.118947 -0.068723
vn 0.2633 -0.9580 -0.1132
vn -0.2636 0.9580 -0.1126
vn -0.3152 0.0000 0.9490
vn 0.2633 0.9580 -0.1132
vn -0.2636 -0.9580 -0.1126
vn 0.3173 0.0000 0.9483
usemtl mat5
s 1
f 1/1/1 2/2/1 3/3/1
f 4/4/2 5/5/2 3/6/2
f 5/7/3 2/8/3 1/9/3
f 5/10/4 1/11/4 3/12/4
f 2/13/5 4/14/5 3/15/5
f 5/16/6 4/17/6 2/18/6
