# Blender v2.93.6 OBJ File: ''
# www.blender.org
mtllib compass.mtl
o compas_1_Mesh
v -0.000071 -0.000795 0.012375
v 0.021797 0.021073 0.012375
v -0.000241 0.134650 0.012375
v -0.023804 -0.000795 0.012375
v -0.022109 0.021242 0.012375
v 0.023492 -0.000965 0.012375
v 0.000098 -0.136240 0.012375
v 0.021966 -0.023002 0.012375
v -0.022109 -0.022663 -0.011188
v -0.022109 -0.022663 0.012375
v 0.000098 -0.136240 -0.011188
v -0.000071 -0.000795 -0.011188
v -0.023804 -0.000795 -0.011188
v 0.021797 0.021073 -0.011188
v -0.022109 0.021242 -0.011188
v 0.021966 -0.023002 -0.011188
v 0.023492 -0.000965 -0.011188
v -0.000241 0.134650 -0.011188
vt 0.467600 0.195900
vt 0.438800 0.195900
vt 0.378900 0.105800
vt 0.483100 0.180200
vt 0.467600 0.166700
vt 0.452100 0.211700
vt 0.556300 0.286000
vt 0.467600 0.225200
vt 0.750700 0.356400
vt 0.728800 0.356400
vt 0.728800 0.340600
vt 0.750700 0.446500
vt 0.728800 0.446500
vt 0.661600 0.195900
vt 0.632800 0.195900
vt 0.646100 0.180200
vt 0.690400 0.195900
vt 0.661600 0.166700
vt 0.661600 0.225200
vt 0.572900 0.286000
vt 0.677100 0.211700
vt 0.789200 0.430700
vt 0.767300 0.430700
vt 0.767300 0.340600
vt 0.789200 0.446500
vt 0.767300 0.446500
vt 0.804300 0.253400
vt 0.788800 0.253400
vt 0.788800 0.231400
vt 0.893000 0.253400
vt 0.804300 0.231400
vt 0.877500 0.214600
vt 0.788800 0.214600
vt 0.788800 0.192600
vt 0.893000 0.214600
vt 0.877500 0.192600
vt 0.496400 0.195900
vt 0.750700 0.340600
vt 0.893000 0.231400
vt 0.750300 0.105800
vt 0.789200 0.340600
vt 0.893000 0.192600
vn 0.0000 -0.0000 1.0000
vn -0.9932 -0.1161 -0.0000
vn -0.9881 -0.1539 -0.0000
vn -1.0000 -0.0013 -0.0000
vn -0.9816 -0.1911 0.0000
vn -0.9814 -0.1919 0.0000
vn 0.0000 0.0000 -1.0000
vn 0.9881 0.1539 -0.0000
vn 0.9932 0.1161 -0.0000
vn 0.9815 0.1913 0.0000
vn 1.0000 0.0016 0.0000
vn 1.0000 0.0017 -0.0000
vn 0.9936 -0.1133 -0.0000
vn 0.9820 -0.1890 0.0000
vn 0.9885 -0.1514 -0.0000
vn -0.9885 0.1514 0.0000
vn -0.9819 0.1893 0.0000
vn -0.9936 0.1133 0.0000
vn -1.0000 -0.0015 -0.0000
vn 0.9819 -0.1893 0.0000
vn 0.9816 0.1910 -0.0000
usemtl Material__25
s 1
f 1/1/1 2/2/1 3/3/1
f 4/4/1 1/1/1 5/5/1
f 1/1/1 6/6/1 2/2/1
f 7/7/1 8/8/1 1/1/1
f 9/9/2 10/10/3 4/11/4
f 11/12/5 7/13/6 10/10/3
f 12/14/7 9/15/7 13/16/7
f 14/17/7 12/14/7 15/18/7
f 16/19/7 11/20/7 9/15/7
f 17/21/7 16/19/7 12/14/7
f 2/22/8 14/23/9 18/24/10
f 6/25/11 17/26/12 14/23/9
f 16/27/13 17/28/12 6/29/11
f 11/30/14 16/27/13 8/31/15
f 5/32/16 3/33/17 18/34/17
f 4/35/4 5/32/16 15/36/18
f 1/1/1 8/8/1 6/6/1
f 4/4/1 10/37/1 1/1/1
f 10/37/1 7/7/1 1/1/1
f 13/38/19 9/9/2 4/11/4
f 9/9/2 11/12/5 10/10/3
f 8/31/15 16/27/13 6/29/11
f 7/39/20 11/30/14 8/31/15
f 5/5/1 1/1/1 3/3/1
f 15/18/7 12/14/7 13/16/7
f 18/40/7 14/17/7 15/18/7
f 12/14/7 16/19/7 9/15/7
f 14/17/7 17/21/7 12/14/7
f 3/41/21 2/22/8 18/24/10
f 2/22/8 6/25/11 14/23/9
f 15/36/18 5/32/16 18/34/17
f 13/42/19 4/35/4 15/36/18
