# 3ds Max Wavefront OBJ Exporter v0.97b - (c)2007 guruware
# File Created: 12.05.2022 15:11:07

mtllib compass.mtl

#
# object compas_1_Mesh
#

v  0.1125 0.0073 -0.0072
v  0.0996 0.0073 -0.0201
v  0.0326 0.0073 -0.0071
v  0.1125 0.0073 0.0068
v  0.0995 0.0073 0.0058
v  0.1126 0.0073 -0.0211
v  0.1924 0.0073 -0.0073
v  0.1256 0.0073 -0.0202
v  0.1254 -0.0066 0.0058
v  0.1254 0.0073 0.0058
v  0.1924 -0.0066 -0.0073
v  0.1125 -0.0066 -0.0072
v  0.1125 -0.0066 0.0068
v  0.0996 -0.0066 -0.0201
v  0.0995 -0.0066 0.0058
v  0.1256 -0.0066 -0.0202
v  0.1126 -0.0066 -0.0211
v  0.0326 -0.0066 -0.0071
# 18 vertices

vn 0.0000 1.0000 -0.0000
vn 0.1161 0.0000 0.9932
vn 0.1539 0.0000 0.9881
vn 0.0015 0.0000 1.0000
vn 0.1915 0.0000 0.9815
vn 0.0000 -1.0000 -0.0000
vn -0.1539 0.0000 -0.9881
vn -0.1161 0.0000 -0.9932
vn -0.1915 0.0000 -0.9815
vn -0.0015 0.0000 -1.0000
vn 0.1133 0.0000 -0.9936
vn 0.1891 0.0000 -0.9820
vn 0.1514 0.0000 -0.9885
vn -0.1514 0.0000 0.9885
vn -0.1891 0.0000 0.9820
vn -0.1133 0.0000 0.9936
# 16 vertex normals

vt 0.4676 0.1959 0.0000
vt 0.4388 0.1959 0.0000
vt 0.3789 0.1058 0.0000
vt 0.4831 0.1802 0.0000
vt 0.4676 0.1667 0.0000
vt 0.4521 0.2117 0.0000
vt 0.5563 0.2860 0.0000
vt 0.4676 0.2252 0.0000
vt 0.7507 0.3564 0.0000
vt 0.7288 0.3564 0.0000
vt 0.7288 0.3406 0.0000
vt 0.7507 0.4465 0.0000
vt 0.7288 0.4465 0.0000
vt 0.6616 0.1959 0.0000
vt 0.6328 0.1959 0.0000
vt 0.6461 0.1802 0.0000
vt 0.6904 0.1959 0.0000
vt 0.6616 0.1667 0.0000
vt 0.6616 0.2252 0.0000
vt 0.5729 0.2860 0.0000
vt 0.6771 0.2117 0.0000
vt 0.7892 0.4307 0.0000
vt 0.7673 0.4307 0.0000
vt 0.7673 0.3406 0.0000
vt 0.7892 0.4465 0.0000
vt 0.7673 0.4465 0.0000
vt 0.8043 0.2534 0.0000
vt 0.7888 0.2534 0.0000
vt 0.7888 0.2314 0.0000
vt 0.8930 0.2534 0.0000
vt 0.8043 0.2314 0.0000
vt 0.8775 0.2146 0.0000
vt 0.7888 0.2146 0.0000
vt 0.7888 0.1926 0.0000
vt 0.8930 0.2146 0.0000
vt 0.8775 0.1926 0.0000
vt 0.4964 0.1959 0.0000
vt 0.7507 0.3406 0.0000
vt 0.8930 0.2314 0.0000
vt 0.7503 0.1058 0.0000
vt 0.7892 0.3406 0.0000
vt 0.8930 0.1926 0.0000
# 42 texture coords

o compas_1_Mesh
g compas_1_Mesh
usemtl Material__25
s 1
f -18/-42/-16 -17/-41/-16 -16/-40/-16 
f -15/-39/-16 -18/-42/-16 -14/-38/-16 
f -18/-42/-16 -13/-37/-16 -17/-41/-16 
f -12/-36/-16 -11/-35/-16 -18/-42/-16 
f -10/-34/-15 -9/-33/-14 -15/-32/-13 
f -8/-31/-12 -12/-30/-12 -9/-33/-14 
f -7/-29/-11 -10/-28/-11 -6/-27/-11 
f -5/-26/-11 -7/-29/-11 -4/-25/-11 
f -3/-24/-11 -8/-23/-11 -10/-28/-11 
f -2/-22/-11 -3/-24/-11 -7/-29/-11 
f -17/-21/-10 -5/-20/-9 -1/-19/-8 
f -13/-18/-7 -2/-17/-7 -5/-20/-9 
f -3/-16/-6 -2/-15/-7 -13/-14/-7 
f -8/-13/-5 -3/-16/-6 -11/-12/-4 
f -14/-11/-3 -16/-10/-2 -1/-9/-2 
f -15/-8/-13 -14/-11/-3 -4/-7/-1 
f -18/-42/-16 -11/-35/-16 -13/-37/-16 
f -15/-39/-16 -9/-6/-16 -18/-42/-16 
f -9/-6/-16 -12/-36/-16 -18/-42/-16 
f -6/-5/-13 -10/-34/-15 -15/-32/-13 
f -10/-34/-15 -8/-31/-12 -9/-33/-14 
f -11/-12/-4 -3/-16/-6 -13/-14/-7 
f -12/-4/-5 -8/-13/-5 -11/-12/-4 
f -14/-38/-16 -18/-42/-16 -16/-40/-16 
f -4/-25/-11 -7/-29/-11 -6/-27/-11 
f -1/-3/-11 -5/-26/-11 -4/-25/-11 
f -7/-29/-11 -3/-24/-11 -10/-28/-11 
f -5/-26/-11 -2/-22/-11 -7/-29/-11 
f -16/-2/-8 -17/-21/-10 -1/-19/-8 
f -17/-21/-10 -13/-18/-7 -5/-20/-9 
f -4/-7/-1 -14/-11/-3 -1/-9/-2 
f -6/-1/-13 -15/-8/-13 -4/-7/-1 
# 32 faces

