# Blender v2.93.6 OBJ File: ''
# www.blender.org
mtllib compass.mtl
o compas_1_Mesh
v -0.000071 0.000403 0.012375
v 0.021797 0.022271 0.012375
v -0.000241 0.135848 0.012375
v -0.023804 0.000403 0.012375
v -0.022109 0.022440 0.012375
v 0.023492 0.000233 0.012375
v -0.000071 0.000403 -0.011188
v -0.023804 0.000403 -0.011188
v 0.021797 0.022271 -0.011188
v -0.022109 0.022440 -0.011188
v 0.023492 0.000233 -0.011188
v -0.000241 0.135848 -0.011188
vt 0.000000 0.000000
vt 0.000000 0.000000
vt 0.000000 0.000000
vt 0.000000 0.000000
vt 0.000000 0.000000
vt 0.000000 0.000000
vt 0.467600 0.195900
vt 0.438800 0.195900
vt 0.378900 0.105800
vt 0.483100 0.180200
vt 0.467600 0.166700
vt 0.452100 0.211700
vt 0.690400 0.195900
vt 0.661600 0.195900
vt 0.661600 0.166700
vt 0.789200 0.430700
vt 0.767300 0.430700
vt 0.767300 0.340600
vt 0.789200 0.446500
vt 0.767300 0.446500
vt 0.877500 0.214600
vt 0.788800 0.214600
vt 0.788800 0.192600
vt 0.893000 0.214600
vt 0.877500 0.192600
vt 0.646100 0.180200
vt 0.750300 0.105800
vt 0.677100 0.211700
vt 0.789200 0.340600
vt 0.893000 0.192600
vn 0.0000 -1.0000 -0.0000
vn -0.0072 -1.0000 -0.0000
vn -0.0000 -0.0000 1.0000
vn 0.0000 0.0000 -1.0000
vn 0.9881 0.1539 -0.0000
vn 0.9932 0.1161 -0.0000
vn 0.9815 0.1912 0.0000
vn 1.0000 0.0016 -0.0000
vn 1.0000 0.0017 0.0000
vn -0.9885 0.1514 0.0000
vn -0.9819 0.1893 0.0000
vn -1.0000 -0.0011 -0.0000
vn -0.9936 0.1133 0.0000
vn 0.9817 0.1905 0.0000
vn -1.0000 -0.0014 0.0000
usemtl Material__25
s off
f 4/1/1 7/2/1 1/3/1
f 4/1/1 8/4/1 7/2/1
f 7/2/2 11/5/2 1/3/2
f 1/3/2 11/5/2 6/6/2
s 1
f 1/7/3 2/8/3 3/9/3
f 4/10/3 1/7/3 5/11/3
f 1/7/3 6/12/3 2/8/3
f 9/13/4 7/14/4 10/15/4
f 2/16/5 9/17/6 12/18/7
f 6/19/8 11/20/9 9/17/6
f 5/21/10 3/22/11 12/23/11
f 4/24/12 5/21/10 10/25/13
f 5/11/3 1/7/3 3/9/3
f 10/15/4 7/14/4 8/26/4
f 12/27/4 9/13/4 10/15/4
f 9/13/4 11/28/4 7/14/4
f 3/29/14 2/16/5 12/18/7
f 2/16/5 6/19/8 9/17/6
f 10/25/13 5/21/10 12/23/11
f 8/30/15 4/24/12 10/25/13
