# Blender v2.93.6 OBJ File: ''
# www.blender.org
mtllib compass_white.mtl
o compas_1_Mesh
v 0.000069 -0.000404 0.012375
v 0.023802 -0.000506 0.012375
v -0.023493 -0.000132 0.012375
v 0.000485 0.135041 0.012375
v -0.021872 0.021898 0.012375
v 0.022201 0.021369 -0.011188
v 0.022201 0.021369 0.012375
v 0.000485 0.135041 -0.011188
v 0.000069 -0.000404 -0.011188
v 0.023802 -0.000506 -0.011188
v -0.021872 0.021898 -0.011188
v -0.023493 -0.000132 -0.011188
vt 0.000000 0.000000
vt 0.000000 0.000000
vt 0.000000 0.000000
vt 0.000000 0.000000
vt 0.000000 0.000000
vt 0.000000 0.000000
vt 0.556300 0.286000
vt 0.467600 0.225200
vt 0.467600 0.195900
vt 0.750700 0.356400
vt 0.728800 0.356400
vt 0.728800 0.340600
vt 0.750700 0.446500
vt 0.728800 0.446500
vt 0.661600 0.195900
vt 0.632800 0.195900
vt 0.646100 0.180200
vt 0.661600 0.225200
vt 0.572900 0.286000
vt 0.677100 0.211700
vt 0.804300 0.253400
vt 0.788800 0.253400
vt 0.788800 0.231400
vt 0.893000 0.253400
vt 0.804300 0.231400
vt 0.452100 0.211700
vt 0.483100 0.180200
vt 0.496400 0.195900
vt 0.750700 0.340600
vt 0.893000 0.231400
vn -0.0115 -0.9999 -0.0000
vn -0.0043 -1.0000 -0.0000
vn -0.0000 -0.0000 1.0000
vn 0.9937 0.1118 -0.0000
vn 0.9887 0.1496 0.0000
vn 1.0000 -0.0031 -0.0000
vn 0.9824 0.1869 -0.0000
vn 0.9822 0.1877 0.0000
vn -0.0000 0.0000 -1.0000
vn -0.9931 0.1176 0.0000
vn -1.0000 0.0026 0.0000
vn -1.0000 0.0027 -0.0000
vn -0.9811 0.1933 0.0000
vn -0.9878 0.1557 0.0000
vn 1.0000 -0.0029 0.0000
vn -0.9810 0.1938 0.0000
usemtl Material__25
s off
f 1/1/1 3/2/1 12/3/1
f 12/3/1 9/4/1 1/1/1
f 9/4/2 2/5/2 1/1/2
f 10/6/2 2/5/2 9/4/2
s 1
f 4/7/3 5/8/3 1/9/3
f 6/10/4 7/11/5 2/12/6
f 8/13/7 4/14/8 7/11/5
f 9/15/9 6/16/9 10/17/9
f 11/18/9 8/19/9 6/16/9
f 12/20/9 11/18/9 9/15/9
f 11/21/10 12/22/11 3/23/12
f 8/24/13 11/21/10 5/25/14
f 1/9/3 5/8/3 3/26/3
f 2/27/3 7/28/3 1/9/3
f 7/28/3 4/7/3 1/9/3
f 10/29/15 6/10/4 2/12/6
f 6/10/4 8/13/7 7/11/5
f 5/25/14 11/21/10 3/23/12
f 4/30/16 8/24/13 5/25/14
f 9/15/9 11/18/9 6/16/9
